<svg width="71" height="71" viewBox="0 0 71 71" fill="none" xmlns="http://www.w3.org/2000/svg">
<path d="M0 35.5C0 15.8939 15.8939 0 35.5 0C55.1061 0 71 15.8939 71 35.5C71 55.1061 55.1061 71 35.5 71C15.8939 71 0 55.1061 0 35.5Z" fill="white"/>
<path d="M35.5 26.0649C38.3887 26.0649 40.3372 27.3126 41.4482 28.3553L45.7897 24.1163C43.1233 21.6379 39.6535 20.1166 35.5 20.1166C29.4834 20.1166 24.2873 23.5693 21.7576 28.5946L26.7315 32.4575C27.9793 28.7484 31.432 26.0649 35.5 26.0649Z" fill="#EA4335"/>
<path d="M50.268 35.8418C50.268 34.577 50.1654 33.654 49.9432 32.6968H35.5V38.4057H43.9779C43.807 39.8244 42.884 41.961 40.8329 43.3967L45.6872 47.1571C48.5929 44.4736 50.268 40.5252 50.268 35.8418Z" fill="#4285F4"/>
<path d="M26.7486 38.5424C26.4238 37.5852 26.2358 36.5597 26.2358 35.5C26.2358 34.4402 26.4238 33.4147 26.7315 32.4575L21.7576 28.5945C20.7149 30.6798 20.1167 33.0215 20.1167 35.5C20.1167 37.9784 20.7149 40.3201 21.7576 42.4054L26.7486 38.5424Z" fill="#FBBC05"/>
<path d="M35.5 50.8833C39.6535 50.8833 43.1404 49.5159 45.6872 47.1571L40.8329 43.3968C39.5339 44.3027 37.7904 44.9351 35.5 44.9351C31.432 44.9351 27.9793 42.2516 26.7486 38.5425L21.7747 42.4054C24.3044 47.4306 29.4834 50.8833 35.5 50.8833Z" fill="#34A853"/>
</svg>
